<svg xmlns="http://www.w3.org/2000/svg" width="32" height="32" viewBox="0 0 32 32" fill="none">
  <path d="M29.8842 6.45254C29.6385 5.95234 29.1149 5.63636 28.5454 5.63636H10.6669L11.6365 2.72727C11.7234 2.46545 11.9038 2.24727 12.1458 2.11636C12.3878 1.98545 12.6698 1.95636 12.9353 2.03636L25.2978 5.81818C25.9309 6.02909 26.6058 5.67636 26.8167 5.04C27.0276 4.40727 26.6749 3.73236 26.0382 3.52145L13.6793 0L13.6758 0L13.6722 0C12.8865 -0.24 12.0436 -0.0145455 11.4051 0.538182C10.7665 1.09091 10.4262 1.92 10.4625 2.77818L9.45818 5.63636H3.45455C2.88509 5.63636 2.36145 5.95234 2.11564 6.45254C1.86982 6.95273 1.96145 7.54909 2.34545 7.94182L12.7855 18.5455H7.27273C6.36218 18.5455 5.63636 19.2713 5.63636 20.1818C5.63636 21.0924 6.36218 21.8182 7.27273 21.8182H14.5455V30.3636C14.5455 31.2742 15.2713 32 16.1818 32C17.0924 32 17.8182 31.2742 17.8182 30.3636V21.8182H25.0909C26.0015 21.8182 26.7273 21.0924 26.7273 20.1818C26.7273 19.2713 26.0015 18.5455 25.0909 18.5455H19.5782L29.6545 7.94182C30.0385 7.54909 30.1302 6.95273 29.8842 6.45254Z" fill="#2563EB"/>
</svg>